<?xml version="1.0" standalone="no"?>
<!DOCTYPE svg PUBLIC "-//W3C//DTD SVG 20010904//EN"
 "http://www.w3.org/TR/2001/REC-SVG-20010904/DTD/svg10.dtd">
<svg version="1.0" xmlns="http://www.w3.org/2000/svg"
 width="1024.000000pt" height="1024.000000pt" viewBox="0 0 1024.000000 1024.000000"
 preserveAspectRatio="xMidYMid meet">
<metadata>
Created by potrace 1.16, written by Peter Selinger 2001-2019
</metadata>
<g transform="translate(0.000000,1024.000000) scale(0.100000,-0.100000)"
fill="#000000" stroke="none">
<path d="M0 5120 l0 -5120 5120 0 5120 0 0 5120 0 5120 -5120 0 -5120 0 0
-5120z m5148 4253 c58 -176 1042 -3223 1042 -3228 0 -3 784 -6 1742 -7 l1742
-3 -94 -69 c-220 -161 -2657 -1924 -2683 -1941 -25 -16 -32 -17 -49 -6 -12 7
-403 292 -869 632 -467 340 -853 619 -859 619 -6 0 -392 -279 -859 -619 -466
-341 -857 -625 -869 -632 -17 -11 -25 -10 -49 6 -26 17 -2466 1782 -2683 1941
l-94 69 1742 3 c958 1 1742 4 1742 7 0 5 986 3061 1042 3228 12 37 25 67 28
67 3 0 16 -30 28 -67z m419 -4962 c241 -176 690 -503 998 -728 l559 -408 138
-419 c76 -231 136 -421 135 -423 -4 -3 58 -49 -1234 894 -568 414 -1037 753
-1043 753 -6 0 -475 -339 -1043 -753 -1291 -942 -1230 -897 -1234 -894 -1 2
59 192 135 423 l138 419 994 727 c547 399 1000 727 1007 727 6 1 209 -143 450
-318z m5 -1264 c244 -177 815 -594 1269 -925 l826 -603 121 -372 c150 -459
153 -469 139 -460 -15 9 -644 467 -1845 1343 -524 382 -957 695 -962 695 -5 0
-609 -437 -1342 -972 -733 -535 -1365 -995 -1405 -1023 l-71 -50 14 48 c8 26
69 214 136 419 l121 372 1211 883 c666 486 1235 902 1266 925 30 23 60 42 67
42 6 1 211 -144 455 -322z"/>
</g>
</svg>
